<svg xmlns="http://www.w3.org/2000/svg" version="1.1" xmlns:xlink="http://www.w3.org/1999/xlink" xmlns:svgjs="http://svgjs.dev/svgjs" width="400" height="400" viewBox="-300 -300 600 600"><path d="M36 176,L 52 255,L -52 255,L -36 176,L -135 119,L -195 172,L -247 83,L -171 57,L -171 -57,L -247 -83,L -195 -172,L -135 -119,L -36 -176,L -52 -255,L 52 -255,L 36 -176,L 135 -119,L 195 -172,L 247 -83,L 171 -57,L 171 57,L 247 83,L 195 172,L 135 119, z M0 20,L -12 16,L -19 6,L -19 -6,L -12 -16,L 0 -20,L 12 -16,L 19 -6,L 19 6,L 12 16, z" fill-rule="evenodd"></path></svg>